<svg width="25" height="24" viewBox="0 0 25 24" fill="none" xmlns="http://www.w3.org/2000/svg">
<path d="M20.5 8.00001L14.5 2.74001C13.95 2.24805 13.2379 1.97607 12.5 1.97607C11.7621 1.97607 11.05 2.24805 10.5 2.74001L4.5 8.00001C4.18237 8.28408 3.9289 8.63256 3.75648 9.02225C3.58405 9.41194 3.49662 9.83389 3.5 10.26V19C3.5 19.7957 3.81607 20.5587 4.37868 21.1213C4.94129 21.6839 5.70435 22 6.5 22H18.5C19.2957 22 20.0587 21.6839 20.6213 21.1213C21.1839 20.5587 21.5 19.7957 21.5 19V10.25C21.502 9.82557 21.4139 9.40555 21.2415 9.01769C21.0691 8.62983 20.8164 8.28296 20.5 8.00001ZM14.5 20H10.5V15C10.5 14.7348 10.6054 14.4804 10.7929 14.2929C10.9804 14.1054 11.2348 14 11.5 14H13.5C13.7652 14 14.0196 14.1054 14.2071 14.2929C14.3946 14.4804 14.5 14.7348 14.5 15V20ZM19.5 19C19.5 19.2652 19.3946 19.5196 19.2071 19.7071C19.0196 19.8946 18.7652 20 18.5 20H16.5V15C16.5 14.2044 16.1839 13.4413 15.6213 12.8787C15.0587 12.3161 14.2957 12 13.5 12H11.5C10.7044 12 9.94129 12.3161 9.37868 12.8787C8.81607 13.4413 8.5 14.2044 8.5 15V20H6.5C6.23479 20 5.98043 19.8946 5.7929 19.7071C5.60536 19.5196 5.5 19.2652 5.5 19V10.25C5.50018 10.108 5.5306 9.9677 5.58922 9.83839C5.64784 9.70907 5.73333 9.59372 5.84 9.50001L11.84 4.25001C12.0225 4.08969 12.2571 4.00127 12.5 4.00127C12.7429 4.00127 12.9775 4.08969 13.16 4.25001L19.16 9.50001C19.2667 9.59372 19.3522 9.70907 19.4108 9.83839C19.4694 9.9677 19.4998 10.108 19.5 10.25V19Z" fill="white"/>
</svg>
