<svg width="20" height="21" viewBox="0 0 20 21" fill="none" xmlns="http://www.w3.org/2000/svg">
<path fill-rule="evenodd" clip-rule="evenodd" d="M4.53513 6.76609e-05C4.41516 0.0014833 4.29665 0.026641 4.18645 0.0740895C4.07624 0.121538 3.97652 0.190338 3.89305 0.27652C3.80957 0.362702 3.74398 0.464561 3.70007 0.57622C3.65616 0.687879 3.63479 0.807128 3.63719 0.927088V1.8323H0.912485C0.792522 1.83181 0.673651 1.85509 0.562727 1.90077C0.451803 1.94646 0.351021 2.01365 0.266194 2.09848C0.181367 2.18331 0.114172 2.28409 0.0684862 2.39502C0.0228002 2.50594 -0.000473519 2.62481 7.30065e-06 2.74477V19.1021C-0.000473519 19.2221 0.0228002 19.341 0.0684862 19.4519C0.114172 19.5628 0.181367 19.6636 0.266194 19.7484C0.351021 19.8333 0.451803 19.9004 0.562727 19.9461C0.673651 19.9918 0.792522 20.0151 0.912485 20.0146H19.0875C19.2075 20.0151 19.3263 19.9918 19.4373 19.9461C19.5482 19.9004 19.649 19.8333 19.7338 19.7484C19.8186 19.6636 19.8858 19.5628 19.9315 19.4519C19.9772 19.341 20.0005 19.2221 20 19.1021V2.74477C20.0005 2.62481 19.9772 2.50594 19.9315 2.39502C19.8858 2.28409 19.8186 2.18331 19.7338 2.09848C19.649 2.01365 19.5482 1.94646 19.4373 1.90077C19.3263 1.85509 19.2075 1.83181 19.0875 1.8323H16.3646V0.927088C16.3646 0.685807 16.2688 0.454407 16.0982 0.283796C15.9276 0.113184 15.6962 0.0173357 15.4549 0.0173357C15.2136 0.0173357 14.9822 0.113184 14.8116 0.283796C14.641 0.454407 14.5451 0.685807 14.5451 0.927088V1.8323H10.9098V0.927088C10.9098 0.685807 10.8139 0.454407 10.6433 0.283796C10.4727 0.113184 10.2413 0.0173357 10 0.0173357C9.75872 0.0173357 9.52732 0.113184 9.35671 0.283796C9.1861 0.454407 9.09025 0.685807 9.09025 0.927088V1.8323H5.45488V0.927088C5.45732 0.805293 5.43526 0.684248 5.39 0.57115C5.34473 0.458052 5.27719 0.355207 5.19139 0.268729C5.10559 0.182251 5.00328 0.113904 4.89055 0.0677515C4.77781 0.0215986 4.65694 -0.00141872 4.53513 6.76609e-05ZM1.81769 3.6518H3.63719V4.56428C3.60993 5.80303 5.48214 5.80303 5.45488 4.56428V3.6518H9.09025V4.56428C9.09025 5.77758 10.9098 5.77758 10.9098 4.56428V3.6518H14.5451V4.56428C14.5451 5.77758 16.3646 5.77758 16.3646 4.56428V3.6518H18.1823V7.28717H1.81769V3.6518ZM1.81769 9.10486H18.1823V18.1969H1.81769V9.10486ZM8.18322 10.9225C7.94218 10.9225 7.71102 11.0183 7.54058 11.1887C7.37013 11.3592 7.27438 11.5903 7.27438 11.8314C7.27438 12.0724 7.37013 12.3036 7.54058 12.474C7.71102 12.6445 7.94218 12.7402 8.18322 12.7402C8.42426 12.7402 8.65543 12.6445 8.82587 12.474C8.99631 12.3036 9.09207 12.0724 9.09207 11.8314C9.09207 11.5903 8.99631 11.3592 8.82587 11.1887C8.65543 11.0183 8.42426 10.9225 8.18322 10.9225ZM11.8186 10.9225C11.5776 10.9225 11.3464 11.0183 11.1759 11.1887C11.0055 11.3592 10.9098 11.5903 10.9098 11.8314C10.9098 12.0724 11.0055 12.3036 11.1759 12.474C11.3464 12.6445 11.5776 12.7402 11.8186 12.7402C12.0596 12.7402 12.2908 12.6445 12.4612 12.474C12.6317 12.3036 12.7274 12.0724 12.7274 11.8314C12.7274 11.5903 12.6317 11.3592 12.4612 11.1887C12.2908 11.0183 12.0596 10.9225 11.8186 10.9225ZM15.454 10.9225C15.2129 10.9225 14.9818 11.0183 14.8113 11.1887C14.6409 11.3592 14.5451 11.5903 14.5451 11.8314C14.5451 12.0724 14.6409 12.3036 14.8113 12.474C14.9818 12.6445 15.2129 12.7402 15.454 12.7402C15.695 12.7402 15.9262 12.6445 16.0966 12.474C16.2671 12.3036 16.3628 12.0724 16.3628 11.8314C16.3628 11.5903 16.2671 11.3592 16.0966 11.1887C15.9262 11.0183 15.695 10.9225 15.454 10.9225ZM4.54785 14.5579C4.30681 14.5579 4.07565 14.6537 3.90521 14.8241C3.73477 14.9945 3.63901 15.2257 3.63901 15.4668C3.63901 15.7078 3.73477 15.939 3.90521 16.1094C4.07565 16.2799 4.30681 16.3756 4.54785 16.3756C4.78889 16.3756 5.02006 16.2799 5.1905 16.1094C5.36094 15.939 5.4567 15.7078 5.4567 15.4668C5.4567 15.2257 5.36094 14.9945 5.1905 14.8241C5.02006 14.6537 4.78889 14.5579 4.54785 14.5579ZM8.18322 14.5579C7.94218 14.5579 7.71102 14.6537 7.54058 14.8241C7.37013 14.9945 7.27438 15.2257 7.27438 15.4668C7.27438 15.7078 7.37013 15.939 7.54058 16.1094C7.71102 16.2799 7.94218 16.3756 8.18322 16.3756C8.42426 16.3756 8.65543 16.2799 8.82587 16.1094C8.99631 15.939 9.09207 15.7078 9.09207 15.4668C9.09207 15.2257 8.99631 14.9945 8.82587 14.8241C8.65543 14.6537 8.42426 14.5579 8.18322 14.5579ZM11.8186 14.5579C11.5776 14.5579 11.3464 14.6537 11.1759 14.8241C11.0055 14.9945 10.9098 15.2257 10.9098 15.4668C10.9098 15.7078 11.0055 15.939 11.1759 16.1094C11.3464 16.2799 11.5776 16.3756 11.8186 16.3756C12.0596 16.3756 12.2908 16.2799 12.4612 16.1094C12.6317 15.939 12.7274 15.7078 12.7274 15.4668C12.7274 15.2257 12.6317 14.9945 12.4612 14.8241C12.2908 14.6537 12.0596 14.5579 11.8186 14.5579Z" fill="#1597B1"/>
</svg>
