<svg width="16" height="19" viewBox="0 0 16 19" fill="none" xmlns="http://www.w3.org/2000/svg">
<path d="M8.00002 0C5.98438 0 4.05129 0.800712 2.62601 2.22599C1.20074 3.65126 0.400024 5.58435 0.400024 7.6C0.400024 12.73 7.09752 18.525 7.38252 18.772C7.5546 18.9192 7.77359 19.0001 8.00002 19.0001C8.22646 19.0001 8.44545 18.9192 8.61752 18.772C8.95002 18.525 15.6 12.73 15.6 7.6C15.6 5.58435 14.7993 3.65126 13.374 2.22599C11.9488 0.800712 10.0157 0 8.00002 0ZM8.00002 16.7675C5.97652 14.8675 2.30002 10.773 2.30002 7.6C2.30002 6.08827 2.90056 4.63845 3.96952 3.56949C5.03847 2.50053 6.48829 1.9 8.00002 1.9C9.51176 1.9 10.9616 2.50053 12.0305 3.56949C13.0995 4.63845 13.7 6.08827 13.7 7.6C13.7 10.773 10.0235 14.877 8.00002 16.7675ZM8.00002 3.8C7.24846 3.8 6.51376 4.02287 5.88886 4.44041C5.26395 4.85796 4.7769 5.45144 4.48928 6.1458C4.20167 6.84016 4.12642 7.60421 4.27304 8.34134C4.41966 9.07847 4.78158 9.75556 5.31302 10.287C5.84446 10.8184 6.52155 11.1804 7.25868 11.327C7.99581 11.4736 8.75986 11.3984 9.45422 11.1107C10.1486 10.8231 10.7421 10.3361 11.1596 9.71117C11.5772 9.08626 11.8 8.35157 11.8 7.6C11.8 6.59218 11.3997 5.62563 10.687 4.91299C9.97439 4.20036 9.00785 3.8 8.00002 3.8ZM8.00002 9.5C7.62424 9.5 7.25689 9.38857 6.94444 9.17979C6.63199 8.97102 6.38846 8.67428 6.24465 8.3271C6.10085 7.97992 6.06322 7.59789 6.13653 7.22933C6.20984 6.86076 6.3908 6.52222 6.65652 6.2565C6.92224 5.99078 7.26079 5.80982 7.62935 5.73651C7.99792 5.66319 8.37994 5.70082 8.72712 5.84463C9.0743 5.98843 9.37104 6.23196 9.57982 6.54442C9.78859 6.85687 9.90002 7.22421 9.90002 7.6C9.90002 8.10391 9.69985 8.58718 9.34353 8.9435C8.98721 9.29982 8.50394 9.5 8.00002 9.5Z" fill="#1597B1"/>
</svg>
