<svg width="26" height="27" viewBox="0 0 26 27" fill="none" xmlns="http://www.w3.org/2000/svg">
<path d="M9.74996 11.3334C9.46264 11.3334 9.18709 11.4476 8.98393 11.6507C8.78076 11.8539 8.66663 12.1294 8.66663 12.4167V14.5834C8.66663 14.8707 8.78076 15.1463 8.98393 15.3494C9.18709 15.5526 9.46264 15.6667 9.74996 15.6667C10.0373 15.6667 10.3128 15.5526 10.516 15.3494C10.7192 15.1463 10.8333 14.8707 10.8333 14.5834V12.4167C10.8333 12.1294 10.7192 11.8539 10.516 11.6507C10.3128 11.4476 10.0373 11.3334 9.74996 11.3334ZM22.75 12.4167C23.0373 12.4167 23.3128 12.3026 23.516 12.0994C23.7192 11.8963 23.8333 11.6207 23.8333 11.3334V7.00008C23.8333 6.71276 23.7192 6.43721 23.516 6.23405C23.3128 6.03088 23.0373 5.91675 22.75 5.91675H3.24996C2.96264 5.91675 2.68709 6.03088 2.48393 6.23405C2.28076 6.43721 2.16663 6.71276 2.16663 7.00008V11.3334C2.16663 11.6207 2.28076 11.8963 2.48393 12.0994C2.68709 12.3026 2.96264 12.4167 3.24996 12.4167C3.53728 12.4167 3.81283 12.5309 4.01599 12.734C4.21916 12.9372 4.33329 13.2128 4.33329 13.5001C4.33329 13.7874 4.21916 14.0629 4.01599 14.2661C3.81283 14.4693 3.53728 14.5834 3.24996 14.5834C2.96264 14.5834 2.68709 14.6976 2.48393 14.9007C2.28076 15.1039 2.16663 15.3794 2.16663 15.6667V20.0001C2.16663 20.2874 2.28076 20.5629 2.48393 20.7661C2.68709 20.9693 2.96264 21.0834 3.24996 21.0834H22.75C23.0373 21.0834 23.3128 20.9693 23.516 20.7661C23.7192 20.5629 23.8333 20.2874 23.8333 20.0001V15.6667C23.8333 15.3794 23.7192 15.1039 23.516 14.9007C23.3128 14.6976 23.0373 14.5834 22.75 14.5834C22.4626 14.5834 22.1871 14.4693 21.9839 14.2661C21.7808 14.0629 21.6666 13.7874 21.6666 13.5001C21.6666 13.2128 21.7808 12.9372 21.9839 12.734C22.1871 12.5309 22.4626 12.4167 22.75 12.4167ZM21.6666 10.4451C21.0392 10.6728 20.4971 11.0882 20.114 11.6348C19.731 12.1813 19.5254 12.8326 19.5254 13.5001C19.5254 14.1675 19.731 14.8188 20.114 15.3654C20.4971 15.912 21.0392 16.3274 21.6666 16.5551V18.9167H10.8333C10.8333 18.6294 10.7192 18.3539 10.516 18.1507C10.3128 17.9475 10.0373 17.8334 9.74996 17.8334C9.46264 17.8334 9.18709 17.9475 8.98393 18.1507C8.78076 18.3539 8.66663 18.6294 8.66663 18.9167H4.33329V16.5551C4.96071 16.3274 5.50279 15.912 5.88588 15.3654C6.26897 14.8188 6.47448 14.1675 6.47448 13.5001C6.47448 12.8326 6.26897 12.1813 5.88588 11.6348C5.50279 11.0882 4.96071 10.6728 4.33329 10.4451V8.08341H8.66663C8.66663 8.37073 8.78076 8.64628 8.98393 8.84945C9.18709 9.05261 9.46264 9.16675 9.74996 9.16675C10.0373 9.16675 10.3128 9.05261 10.516 8.84945C10.7192 8.64628 10.8333 8.37073 10.8333 8.08341H21.6666V10.4451Z" fill="#1597B1"/>
</svg>
